<svg width="240" height="240" viewBox="0 0 240 240" fill="none" xmlns="http://www.w3.org/2000/svg">
<g clip-path="url(#clip0_1_399)">
<rect width="240" height="240" rx="40" fill="url(#paint0_linear_1_399)"/>
<g filter="url(#filter0_f_1_399)">
<path d="M0.905762 58.9621C0.905762 49.106 0.905762 34.3074 0.905762 22.0019C0.905762 9.84983 10.757 0 22.9091 0H220.098C232.25 0 242.102 9.85121 242.102 22.0033V47.1697" stroke="white" stroke-width="11.0017"/>
</g>
<g filter="url(#filter1_f_1_399)">
<path d="M58.9621 242.598C49.106 242.598 34.3074 242.598 22.0019 242.598C9.84983 242.598 -4.3061e-07 232.747 -9.61795e-07 220.595L-9.58121e-06 23.4055C-1.01124e-05 11.2534 9.8512 1.40219 22.0033 1.40219L47.1697 1.40219" stroke="white" stroke-width="11.0017"/>
</g>
<g filter="url(#filter2_f_1_399)">
<path d="M259.853 2.14273L241.616 220.635C240.693 231.697 231.675 240.339 220.583 240.79L13.2246 249.222" stroke="#AFC2EE" stroke-width="11.0017"/>
</g>
<g filter="url(#filter3_f_1_399)">
<path d="M193.833 163.775C193.833 169.129 189.493 173.469 184.14 173.469H164.752V192.856C164.752 198.21 160.412 202.55 155.059 202.55H67.8151C62.4614 202.55 58.1213 198.21 58.1213 192.856V86.2251C58.1213 80.8714 62.4614 76.5314 67.8151 76.5314H87.2025V57.1439C87.2025 51.7902 91.5425 47.4502 96.8962 47.4502H159.905L193.833 81.3782V163.775Z" fill="#A0AFD2"/>
</g>
<rect x="50" y="70" width="110" height="130" rx="10" fill="url(#paint1_linear_1_399)"/>
<mask id="mask0_1_399" style="mask-type:alpha" maskUnits="userSpaceOnUse" x="50" y="70" width="110" height="130">
<rect x="50" y="70" width="110" height="130" rx="10" fill="#E2ECFF"/>
</mask>
<g mask="url(#mask0_1_399)">
<g filter="url(#filter4_f_1_399)">
<ellipse cx="133.372" cy="130" rx="56.6281" ry="55" fill="#A3B0CB" fill-opacity="0.5"/>
</g>
</g>
<path d="M90 170H180C185.523 170 190 165.523 190 160V75L155 40H90C84.4772 40 80 44.4772 80 50V160C80 165.523 84.4771 170 90 170Z" fill="url(#paint2_linear_1_399)"/>
<rect x="100" y="140" width="70" height="10" rx="5" fill="url(#paint3_linear_1_399)"/>
<rect x="100" y="120" width="70" height="10" rx="5" fill="url(#paint4_linear_1_399)"/>
<rect x="100" y="100" width="70" height="10" rx="5" fill="url(#paint5_linear_1_399)"/>
<circle cx="115" cy="75" r="15" fill="url(#paint6_linear_1_399)"/>
<mask id="mask1_1_399" style="mask-type:alpha" maskUnits="userSpaceOnUse" x="80" y="40" width="110" height="130">
<path d="M90 170H180C185.523 170 190 165.523 190 160V75L155 40H90C84.4772 40 80 44.4772 80 50V160C80 165.523 84.4771 170 90 170Z" fill="url(#paint7_linear_1_399)"/>
</mask>
<g mask="url(#mask1_1_399)">
<g filter="url(#filter5_f_1_399)">
<rect x="152.73" y="50" width="47.2699" height="30" fill="url(#paint8_linear_1_399)" fill-opacity="0.5"/>
</g>
</g>
<path d="M155 65V40L190 75H165C159.477 75 155 70.5228 155 65Z" fill="url(#paint9_linear_1_399)"/>
<mask id="mask2_1_399" style="mask-type:alpha" maskUnits="userSpaceOnUse" x="155" y="40" width="35" height="35">
<path d="M155 65V40L190 75H165C159.477 75 155 70.5228 155 65Z" fill="url(#paint10_linear_1_399)"/>
</mask>
<g mask="url(#mask2_1_399)">
<g filter="url(#filter6_f_1_399)">
<rect x="151.607" y="40" width="9.59152" height="31.2221" fill="url(#paint11_linear_1_399)"/>
</g>
</g>
</g>
<defs>
<filter id="filter0_f_1_399" x="-26.5984" y="-27.5041" width="296.204" height="108.47" filterUnits="userSpaceOnUse" color-interpolation-filters="sRGB">
<feFlood flood-opacity="0" result="BackgroundImageFix"/>
<feBlend mode="normal" in="SourceGraphic" in2="BackgroundImageFix" result="shape"/>
<feGaussianBlur stdDeviation="11.0017" result="effect1_foregroundBlur_1_399"/>
</filter>
<filter id="filter1_f_1_399" x="-27.5042" y="-26.1019" width="108.47" height="296.204" filterUnits="userSpaceOnUse" color-interpolation-filters="sRGB">
<feFlood flood-opacity="0" result="BackgroundImageFix"/>
<feBlend mode="normal" in="SourceGraphic" in2="BackgroundImageFix" result="shape"/>
<feGaussianBlur stdDeviation="11.0017" result="effect1_foregroundBlur_1_399"/>
</filter>
<filter id="filter2_f_1_399" x="-9.00227" y="-20.3181" width="296.34" height="297.04" filterUnits="userSpaceOnUse" color-interpolation-filters="sRGB">
<feFlood flood-opacity="0" result="BackgroundImageFix"/>
<feBlend mode="normal" in="SourceGraphic" in2="BackgroundImageFix" result="shape"/>
<feGaussianBlur stdDeviation="11.0017" result="effect1_foregroundBlur_1_399"/>
</filter>
<filter id="filter3_f_1_399" x="28.1213" y="17.4502" width="195.712" height="215.1" filterUnits="userSpaceOnUse" color-interpolation-filters="sRGB">
<feFlood flood-opacity="0" result="BackgroundImageFix"/>
<feBlend mode="normal" in="SourceGraphic" in2="BackgroundImageFix" result="shape"/>
<feGaussianBlur stdDeviation="15" result="effect1_foregroundBlur_1_399"/>
</filter>
<filter id="filter4_f_1_399" x="46.7438" y="45" width="173.256" height="170" filterUnits="userSpaceOnUse" color-interpolation-filters="sRGB">
<feFlood flood-opacity="0" result="BackgroundImageFix"/>
<feBlend mode="normal" in="SourceGraphic" in2="BackgroundImageFix" result="shape"/>
<feGaussianBlur stdDeviation="15" result="effect1_foregroundBlur_1_399"/>
</filter>
<filter id="filter5_f_1_399" x="122.73" y="20" width="107.27" height="90" filterUnits="userSpaceOnUse" color-interpolation-filters="sRGB">
<feFlood flood-opacity="0" result="BackgroundImageFix"/>
<feBlend mode="normal" in="SourceGraphic" in2="BackgroundImageFix" result="shape"/>
<feGaussianBlur stdDeviation="15" result="effect1_foregroundBlur_1_399"/>
</filter>
<filter id="filter6_f_1_399" x="131.607" y="20" width="49.5916" height="71.2221" filterUnits="userSpaceOnUse" color-interpolation-filters="sRGB">
<feFlood flood-opacity="0" result="BackgroundImageFix"/>
<feBlend mode="normal" in="SourceGraphic" in2="BackgroundImageFix" result="shape"/>
<feGaussianBlur stdDeviation="10" result="effect1_foregroundBlur_1_399"/>
</filter>
<linearGradient id="paint0_linear_1_399" x1="208.413" y1="240" x2="16.3947" y2="16.5777" gradientUnits="userSpaceOnUse">
<stop stop-color="#D1DAED"/>
<stop offset="1" stop-color="#F5F7FD"/>
</linearGradient>
<linearGradient id="paint1_linear_1_399" x1="50" y1="145.358" x2="146.047" y2="202.467" gradientUnits="userSpaceOnUse">
<stop stop-color="#FBFCFF"/>
<stop offset="1" stop-color="#E2ECFF"/>
</linearGradient>
<linearGradient id="paint2_linear_1_399" x1="184.135" y1="168.767" x2="156.625" y2="101.084" gradientUnits="userSpaceOnUse">
<stop stop-color="#F7F9FF"/>
<stop offset="1" stop-color="white"/>
</linearGradient>
<linearGradient id="paint3_linear_1_399" x1="116.861" y1="140" x2="179.981" y2="158.269" gradientUnits="userSpaceOnUse">
<stop stop-color="#E7F3FF"/>
<stop offset="1" stop-color="#D0E6FB"/>
</linearGradient>
<linearGradient id="paint4_linear_1_399" x1="116.861" y1="120" x2="179.981" y2="138.269" gradientUnits="userSpaceOnUse">
<stop stop-color="#E7F3FF"/>
<stop offset="1" stop-color="#D0E6FB"/>
</linearGradient>
<linearGradient id="paint5_linear_1_399" x1="116.861" y1="100" x2="179.981" y2="118.269" gradientUnits="userSpaceOnUse">
<stop stop-color="#E7F3FF"/>
<stop offset="1" stop-color="#D0E6FB"/>
</linearGradient>
<linearGradient id="paint6_linear_1_399" x1="101.43" y1="64.2998" x2="115" y2="90" gradientUnits="userSpaceOnUse">
<stop stop-color="#68C2FF"/>
<stop offset="1" stop-color="#1E95E5"/>
</linearGradient>
<linearGradient id="paint7_linear_1_399" x1="135" y1="40" x2="135" y2="170" gradientUnits="userSpaceOnUse">
<stop stop-color="white"/>
<stop offset="1" stop-color="white" stop-opacity="0"/>
</linearGradient>
<linearGradient id="paint8_linear_1_399" x1="159.39" y1="46.8564" x2="186.721" y2="55.3511" gradientUnits="userSpaceOnUse">
<stop stop-color="white"/>
<stop offset="1" stop-color="#002843"/>
</linearGradient>
<linearGradient id="paint9_linear_1_399" x1="136.122" y1="85.1742" x2="175" y2="80" gradientUnits="userSpaceOnUse">
<stop stop-color="#F1F1F1"/>
<stop offset="1" stop-color="#B4D8F9"/>
</linearGradient>
<linearGradient id="paint10_linear_1_399" x1="136.122" y1="85.1742" x2="175" y2="80" gradientUnits="userSpaceOnUse">
<stop stop-color="#F1F1F1"/>
<stop offset="1" stop-color="#C7E1FA"/>
</linearGradient>
<linearGradient id="paint11_linear_1_399" x1="152.359" y1="60.6447" x2="157.979" y2="60.682" gradientUnits="userSpaceOnUse">
<stop stop-color="white"/>
<stop offset="1" stop-color="white" stop-opacity="0"/>
</linearGradient>
<clipPath id="clip0_1_399">
<rect width="240" height="240" rx="40" fill="white"/>
</clipPath>
</defs>
</svg>
